HIERARCHY
ROOT Hips
{
	OFFSET 0.00 0.00 0.00
	CHANNELS 6 Xposition Yposition Zposition Xrotation Yrotation Zrotation
	JOINT LeftUpLeg
	{
		OFFSET 2.83210 0.00000 0.00000
		CHANNELS 3 Xrotation Yrotation Zrotation
		JOINT LeftLeg
		{
			OFFSET 0.00000 -16.27150 0.00000
			CHANNELS 3 Xrotation Yrotation Zrotation
			JOINT LeftFoot
			{
				OFFSET 0.00000 -14.95190 0.00000
				CHANNELS 3 Xrotation Yrotation Zrotation
				JOINT LeftToeBase
				{
					OFFSET 0.00000 -1.07991 4.03030
					CHANNELS 3 Xrotation Yrotation Zrotation
					End Site
					{
						OFFSET 0.00000 0.00000 2.95275
					}
				}
			}
		}
	}
	JOINT RightUpLeg
	{
		OFFSET -2.83210 0.00000 0.00000
		CHANNELS 3 Xrotation Yrotation Zrotation
		JOINT RightLeg
		{
			OFFSET 0.00000 -16.27150 0.00000
			CHANNELS 3 Xrotation Yrotation Zrotation
			JOINT RightFoot
			{
				OFFSET 0.00000 -14.95190 0.00000
				CHANNELS 3 Xrotation Yrotation Zrotation
				JOINT RightToeBase
				{
					OFFSET 0.00000 -1.07991 4.03030
					CHANNELS 3 Xrotation Yrotation Zrotation
					End Site
					{
						OFFSET 0.00000 0.00000 2.95275
					}
				}
			}
		}
	}
	JOINT Spine
	{
		OFFSET 0.00000 0.03937 0.00000
		CHANNELS 3 Xrotation Yrotation Zrotation
		JOINT Spine1
		{
			OFFSET 0.00000 8.01054 0.00000
			CHANNELS 3 Xrotation Yrotation Zrotation
			JOINT Neck
			{
				OFFSET 0.00000 8.21888 0.00000
				CHANNELS 3 Xrotation Yrotation Zrotation
				JOINT Head
				{
					OFFSET 0.00000 3.25664 0.00000
					CHANNELS 3 Xrotation Yrotation Zrotation
					End Site
					{
						OFFSET 0.00000 4.52755 0.00000
					}
				}
			}
			JOINT LeftShoulder
			{
				OFFSET 0.00000 8.21888 0.00000
				CHANNELS 3 Xrotation Yrotation Zrotation
				JOINT LeftArm
				{
					OFFSET 6.52904 -0.00002 0.00000
					CHANNELS 3 Xrotation Yrotation Zrotation
					JOINT LeftForeArm
					{
						OFFSET 10.44840 -0.00004 0.00000
						CHANNELS 3 Xrotation Yrotation Zrotation
						JOINT LeftHand
						{
							OFFSET 8.94727 -0.00003 0.00000
							CHANNELS 3 Xrotation Yrotation Zrotation
							JOINT LeftHandThumb
							{
								OFFSET 0.00000 0.00000 0.00000
								CHANNELS 3 Xrotation Yrotation Zrotation
								End Site
								{
									OFFSET 0.00000 0.00000 3.93700
								}
							}
							JOINT L_Wrist_End
							{
								OFFSET 3.93700 -0.00001 0.00000
								CHANNELS 3 Xrotation Yrotation Zrotation
							}
						}
					}
				}
			}
			JOINT RightShoulder
			{
				OFFSET 0.00000 8.21888 0.00000
				CHANNELS 3 Xrotation Yrotation Zrotation
				JOINT RightArm
				{
					OFFSET -6.52904 -0.00002 0.00000
					CHANNELS 3 Xrotation Yrotation Zrotation
					JOINT RightForeArm
					{
						OFFSET -10.44840 -0.00004 0.00000
						CHANNELS 3 Xrotation Yrotation Zrotation
						JOINT RightHand
						{
							OFFSET -8.94727 -0.00003 0.00000
							CHANNELS 3 Xrotation Yrotation Zrotation
							JOINT RightHandThumb
							{
								OFFSET 0.00000 0.00000 0.00000
								CHANNELS 3 Xrotation Yrotation Zrotation
								End Site
								{
									OFFSET 0.00000 0.00000 3.93700
								}
							}
							JOINT R_Wrist_End
							{
								OFFSET -5.39369 -0.00002 0.00000
								CHANNELS 3 Xrotation Yrotation Zrotation
							}
						}
					}
				}
			}
		}
	}
}
MOTION
Frames: 9
Frame Time: 0.008333
 6.1700 31.6670 -5.3847 28.7016 -64.9104 27.7165 7.4234 37.9332 -7.3755 9.0841 0.0000 -0.0000 -13.7548 32.4740 -12.3598 15.9788 0.0000 0.0000 -32.2604 -5.7456 8.3886 3.1302 -0.0000 -0.0000 -0.3057 -24.8269 16.4347 17.4327 0.0000 0.0000 -11.6334 -0.4932 -10.2423 11.3485 -9.1855 11.1697 -25.7800 12.7027 -3.8462 0.6792 -40.9265 -3.4350 10.4592 9.7981 1.1807 -48.7111 -31.6714 -80.3417 -0.0001 -24.1162 -0.0000 -5.4718 -3.9457 -16.9468 -0.0000 -0.0000 0.0000 -0.0000 -0.0000 0.0000 19.0437 -22.9318 4.1792 -6.9036 17.4743 68.3571 -0.0000 7.4011 0.0000 -3.4986 -8.7174 4.0396 -0.0000 -0.0000 0.0000 -0.0000 -0.0000 0.0000
 5.9498 31.6366 -5.3147 28.8490 -65.1198 27.7700 7.4985 37.9999 -6.9780 9.6126 -0.0000 0.0000 -13.5212 32.2485 -12.7357 15.5407 0.0000 -0.0000 -31.9762 -5.5674 8.5934 3.0618 -0.0000 0.0000 -0.1691 -25.5323 15.3926 17.1917 0.0000 0.0000 -11.7211 -0.4970 -10.3840 11.5517 -9.0494 11.7097 -25.5909 12.6928 -3.8924 -0.1527 -40.8275 -3.9743 10.3960 9.7679 1.0793 -48.4725 -30.9183 -80.6802 -0.0001 -23.9411 -0.0000 -4.8520 -3.8280 -16.5326 0.0000 0.0000 -0.0000 0.0000 0.0000 -0.0000 18.7779 -22.9073 3.8571 -6.7618 17.1170 68.4951 -0.0000 7.0247 0.0000 -3.2877 -8.6668 4.3018 -0.0000 0.0000 0.0000 -0.0000 0.0000 0.0000
 5.7456 31.6106 -5.2353 29.3014 -65.2563 28.2424 7.4795 38.1029 -6.7482 10.2266 -0.0000 0.0000 -13.1256 31.9342 -13.2314 14.9549 0.0000 0.0000 -31.9426 -5.4994 8.6135 3.2539 0.0000 0.0000 -0.0072 -25.9740 14.5144 16.8609 0.0000 0.0000 -11.7292 -0.4679 -10.3763 11.4369 -9.0056 11.7977 -25.6560 12.6539 -3.9897 -0.4034 -40.7421 -4.0328 10.6394 9.9698 0.9071 -48.5931 -30.6696 -81.0641 -0.0001 -23.4771 -0.0000 -4.3802 -3.9625 -15.9564 0.0000 -0.0000 0.0000 0.0000 -0.0000 0.0000 18.7986 -22.9091 3.9719 -6.6914 17.0786 68.3938 -0.0000 6.6311 0.0000 -3.1206 -8.7224 4.5491 -0.0000 -0.0000 -0.0000 -0.0000 -0.0000 -0.0000
 5.5316 31.5900 -5.1575 29.7592 -65.4493 28.7126 7.4828 37.9933 -6.5038 10.7946 0.0000 -0.0000 -12.5797 31.7945 -13.9757 14.6058 -0.0000 -0.0000 -31.9147 -5.5451 8.6725 3.6683 -0.0000 -0.0000 0.1334 -26.1781 13.3025 16.7115 -0.0000 0.0000 -11.7487 -0.4207 -10.3904 11.3669 -8.9312 11.9279 -25.6885 12.7280 -3.9611 -0.8347 -40.7402 -4.3105 10.8287 10.1718 0.7518 -48.5956 -30.3369 -81.4658 -0.0001 -22.9902 -0.0000 -3.8735 -4.1539 -15.3977 0.0000 -0.0000 0.0000 0.0000 -0.0000 0.0000 18.8379 -22.8469 4.0420 -6.6787 17.0491 68.3510 -0.0000 6.2295 0.0000 -3.2210 -8.7158 4.6498 -0.0000 0.0000 -0.0000 -0.0000 0.0000 -0.0000
 5.2911 31.5745 -5.0803 29.8447 -65.6683 28.8047 7.6164 37.8012 -6.1544 11.3470 -0.0000 -0.0000 -11.7881 31.6010 -14.8537 13.8591 -0.0000 0.0000 -31.6914 -5.5996 8.7377 4.1647 -0.0000 0.0000 0.0802 -26.4556 12.3146 16.4696 0.0000 -0.0000 -11.8192 -0.4094 -10.5897 11.5743 -8.7799 12.4146 -25.4708 12.8939 -3.8012 -1.9580 -40.7898 -5.1801 10.6762 10.1786 0.7080 -47.9723 -29.6363 -81.7859 -0.0001 -22.8704 -0.0000 -3.4677 -4.1792 -15.0286 0.0000 0.0000 0.0000 0.0000 0.0000 0.0000 18.7122 -22.8304 3.8411 -6.7101 17.1040 68.4486 -0.0000 5.7258 0.0000 -3.1467 -8.7330 4.7189 0.0000 0.0000 0.0000 0.0000 0.0000 0.0000
 5.0580 31.5679 -4.9971 30.2896 -65.8162 29.2875 7.6254 37.5192 -5.9333 11.8989 0.0000 -0.0000 -11.0057 31.5546 -15.4642 13.2047 -0.0000 0.0000 -31.6869 -5.7002 8.7146 4.8287 0.0000 0.0000 -0.1043 -26.7805 11.2638 16.2539 0.0000 0.0000 -11.8430 -0.3535 -10.5863 11.4351 -8.7178 12.4830 -25.4901 12.8757 -3.8718 -2.2426 -40.7204 -5.2740 11.0717 10.3746 0.5012 -47.8657 -29.5001 -82.0791 -0.0001 -22.4622 -0.0000 -3.4422 -4.5378 -14.4783 -0.0000 -0.0000 0.0000 -0.0000 -0.0000 0.0000 18.7071 -22.7976 3.9619 -6.7333 17.0282 68.3756 -0.0000 5.3019 0.0000 -2.9361 -8.9021 4.9680 -0.0000 -0.0000 0.0000 -0.0000 -0.0000 0.0000
 4.8129 31.5664 -4.9116 30.7417 -66.0826 29.8103 7.7456 37.2956 -5.7666 12.4513 -0.0000 0.0000 -10.0508 31.5108 -16.2587 12.5528 0.0000 -0.0000 -31.6566 -5.7256 8.7060 5.6757 0.0000 0.0000 -0.5153 -27.1863 10.4212 16.3548 0.0000 0.0000 -11.8784 -0.2658 -10.6153 11.3543 -8.6141 12.5704 -25.4351 13.0114 -3.7821 -2.7810 -40.7318 -5.6483 11.2833 10.5923 0.3215 -47.4849 -29.3071 -82.3684 -0.0001 -22.0364 -0.0000 -3.3413 -4.8544 -13.8751 -0.0000 0.0000 0.0000 -0.0000 0.0000 0.0000 18.7074 -22.6905 4.0117 -6.7555 17.1364 68.3454 -0.0000 4.8598 0.0000 -2.7849 -8.9917 5.0114 0.0000 -0.0000 -0.0000 0.0000 -0.0000 -0.0000
 4.5484 31.5710 -4.8178 30.8422 -66.3761 30.0767 8.1167 37.2577 -5.6773 12.9665 0.0000 -0.0000 -8.9182 31.1863 -17.0637 11.8225 0.0000 0.0000 -31.4739 -5.7676 8.5939 6.6278 0.0000 0.0000 -0.9010 -27.5803 9.7218 16.0829 -0.0000 0.0000 -11.9156 -0.1914 -10.7402 11.4366 -8.4844 12.7311 -25.2314 13.2101 -3.5934 -3.7242 -40.7922 -6.3679 11.2335 10.6830 0.2862 -46.6391 -28.8928 -82.6131 -0.0001 -21.7886 -0.0000 -3.3364 -5.1066 -13.4247 0.0000 0.0000 0.0000 0.0000 0.0000 0.0000 18.6470 -22.6307 3.9709 -6.8098 17.4470 68.3669 -0.0000 4.3436 0.0000 -2.6523 -9.0439 5.0765 -0.0000 -0.0000 0.0000 -0.0000 -0.0000 0.0000
 4.2786 31.5869 -4.7302 31.2959 -66.6137 30.5945 8.1978 37.1911 -5.4597 13.5825 0.0000 0.0000 -7.8510 31.0113 -17.5592 11.1156 -0.0000 0.0000 -31.3846 -5.7889 8.5534 7.5482 0.0000 -0.0000 -1.2227 -28.0534 9.3006 16.3199 -0.0000 0.0000 -11.9687 -0.0966 -10.7459 11.2913 -8.3917 12.7830 -25.1907 13.2559 -3.5892 -4.0438 -40.7533 -6.5602 11.5966 10.8981 0.0657 -46.1519 -28.7173 -82.8434 -0.0001 -21.3888 -0.0000 -3.3043 -5.3010 -12.9329 -0.0000 -0.0000 0.0000 -0.0000 -0.0000 0.0000 18.6526 -22.5374 4.0536 -6.8420 17.5492 68.3215 -0.0000 4.0255 0.0000 -2.1642 -9.2635 5.2235 -0.0000 -0.0000 0.0000 -0.0000 -0.0000 0.0000
